<svg width="130" height="22" viewBox="0 0 130 22" fill="none" xmlns="http://www.w3.org/2000/svg">
<path d="M72.6794 8.32275L72.6796 4.45691L70.144 4.45675L70.1437 9.56518L72.6794 8.32275ZM75.7109 10.4768L75.7104 18.0151C75.7103 19.81 74.8008 20.6659 72.8991 20.6658L67.1113 20.6655L67.1125 1.50195L73.1483 1.50234C74.7469 1.50244 75.7114 2.44134 75.7113 4.12574L75.711 8.15726C75.711 9.39985 75.3251 10.1454 74.3604 10.4767L75.7109 10.4768ZM72.6788 17.6836L72.6792 11.5259L70.1435 12.7959L70.1432 17.6834L72.6788 17.6836Z" fill="white"/>
<path d="M86.5838 20.6667L83.4419 20.6665L83.4424 12.5482L81.1272 13.7355L81.1268 20.6663L77.9849 20.6661L77.9859 4.12589C77.986 2.44149 78.9232 1.5027 80.5217 1.5028L84.0219 1.50303C85.6204 1.50313 86.585 2.44203 86.5848 4.12643L86.5838 20.6667ZM83.4426 9.17944L83.4429 4.54043L81.1278 4.54028L81.1275 10.3114L83.4426 9.17944Z" fill="white"/>
<path d="M94.37 9.23535L94.3703 4.54112L92.0552 4.54098L92.0548 10.395L94.37 9.23535ZM97.5118 11.0028L95.1966 12.19L98.779 20.6675L95.4992 20.6673L92.5231 13.5705L92.0546 13.819L92.0542 20.667L88.9122 20.6668L88.9135 1.50334L94.9492 1.50372C96.5478 1.50382 97.5123 2.44273 97.5122 4.12713L97.5118 11.0028Z" fill="white"/>
<path d="M105.327 8.32482L105.327 4.45898L102.792 4.45882L102.791 9.56725L105.327 8.32482ZM108.358 10.4788L108.358 18.0172C108.358 19.8121 107.448 20.668 105.547 20.6679L99.7589 20.6675L99.7601 1.50403L105.796 1.50441C107.394 1.50451 108.359 2.44342 108.359 4.12782L108.359 8.15933C108.359 9.40192 107.973 10.1475 107.008 10.4787L108.358 10.4788ZM105.326 17.6857L105.327 11.5279L102.791 12.798L102.791 17.6855L105.326 17.6857Z" fill="white"/>
<path d="M118.212 20.6687L110.632 20.6682L110.634 1.50472L118.213 1.5052L118.213 4.57025L113.775 4.56997L113.775 9.51272L118.212 7.27634L118.212 10.7004L113.775 12.9644L113.775 17.6034L118.212 17.6036L118.212 20.6687Z" fill="white"/>
<path d="M125.591 9.23734L125.591 4.54311L123.276 4.54296L123.276 10.3969L125.591 9.23734ZM128.733 11.0048L126.418 12.192L130 20.6694L126.72 20.6692L123.744 13.5725L123.276 13.821L123.275 20.669L120.133 20.6688L120.135 1.50532L126.17 1.5057C127.769 1.5058 128.733 2.44471 128.733 4.12911L128.733 11.0048Z" fill="white"/>
<path d="M25.34 19.7723L25.3393 2.22457L30.1402 1.49982L32.9203 1.49999L32.9201 4.56505L28.4829 4.56477L28.4825 9.50752L32.92 7.27113L32.9197 10.6952L28.4823 12.9592L28.4823 20.3962L25.34 19.7723Z" fill="#8162FF"/>
<path d="M34.4913 4.12334C34.4914 2.43894 35.4286 1.50015 37.0271 1.50025L40.5273 1.50048C42.1258 1.50058 43.0904 2.43948 43.0902 4.12388L43.0902 4.59331L39.9206 6.24989L39.9207 4.53788L37.6332 4.53773L37.6329 9.37003L43.0901 6.55384L43.0894 18.0409C43.0893 19.7253 42.1246 20.6641 40.5261 20.664L37.0259 20.6638C35.4273 20.6637 34.4903 19.7248 34.4904 18.0404L34.4906 16.2455L37.6326 14.6165L37.6324 17.6264L39.9199 17.6265L39.9203 11.6068L34.4907 14.4506L34.4913 4.12334Z" fill="#8162FF"/>
<path d="M53.9095 1.50132L53.9085 17.5998L56.196 17.5999L56.197 1.50147L59.3665 1.50167L59.3654 17.9867C59.3653 19.8092 58.4833 20.6651 56.6092 20.665L54.1563 20.6648C53.0263 20.6648 52.3649 20.002 52.365 18.8147C52.3649 20.002 51.6759 20.6647 50.5459 20.6646L47.9 20.6644C46.3015 20.6643 45.3645 19.7254 45.3646 18.041L45.3657 1.50078L48.5076 1.50098L48.5066 17.5994L50.8217 17.5996L50.8227 1.50113L53.9095 1.50132Z" fill="#8162FF"/>
<path d="M25.34 19.7723L25.3393 2.22457L30.1402 1.49982L32.9203 1.49999L32.9201 4.56505L28.4829 4.56477L28.4825 9.50752L32.92 7.27113L32.9197 10.6952L28.4823 12.9592L28.4823 20.3962L25.34 19.7723Z" fill="#8162FF"/>
<path d="M34.4913 4.12334C34.4914 2.43894 35.4286 1.50015 37.0271 1.50025L40.5273 1.50048C42.1258 1.50058 43.0904 2.43948 43.0902 4.12388L43.0902 4.59331L39.9206 6.24989L39.9207 4.53788L37.6332 4.53773L37.6329 9.37003L43.0901 6.55384L43.0894 18.0409C43.0893 19.7253 42.1246 20.6641 40.5261 20.664L37.0259 20.6638C35.4273 20.6637 34.4903 19.7248 34.4904 18.0404L34.4906 16.2455L37.6326 14.6165L37.6324 17.6264L39.9199 17.6265L39.9203 11.6068L34.4907 14.4506L34.4913 4.12334Z" fill="#8162FF"/>
<path d="M53.9095 1.50132L53.9085 17.5998L56.196 17.5999L56.197 1.50147L59.3665 1.50167L59.3654 17.9867C59.3653 19.8092 58.4833 20.6651 56.6092 20.665L54.1563 20.6648C53.0263 20.6648 52.3649 20.002 52.365 18.8147C52.3649 20.002 51.6759 20.6647 50.5459 20.6646L47.9 20.6644C46.3015 20.6643 45.3645 19.7254 45.3646 18.041L45.3657 1.50078L48.5076 1.50098L48.5066 17.5994L50.8217 17.5996L50.8227 1.50113L53.9095 1.50132Z" fill="#8162FF"/>
<path fill-rule="evenodd" clip-rule="evenodd" d="M1.81656 4.93412C1.8165 5.7627 2.14596 6.55736 2.73244 7.14328C3.31892 7.72921 4.11439 8.05841 4.94385 8.05846C5.77331 8.05852 6.56882 7.72942 7.15537 7.14356C7.74193 6.55771 8.07148 5.76309 8.07153 4.93452C8.07159 4.10595 7.74213 3.31129 7.15565 2.72536C6.56917 2.13943 5.77371 1.81023 4.94424 1.81018C4.11478 1.81013 3.31927 2.13923 2.73272 2.72508C2.14616 3.31093 1.81661 4.10555 1.81656 4.93412ZM4.94373 9.87248C3.88532 9.87229 2.8549 9.53277 2.00409 8.90387C1.15328 8.27496 0.526999 7.38988 0.217387 6.37885C-0.0922245 5.36781 -0.0688178 4.2842 0.284164 3.28745C0.637145 2.29069 1.30106 1.43343 2.17824 0.841767C3.05541 0.250109 4.09953 -0.0446962 5.15697 0.000724021C6.21441 0.0461443 7.22934 0.429392 8.05243 1.09408C8.87553 1.75877 9.46333 2.66981 9.72936 3.69315C9.99538 4.71649 9.92559 5.79811 9.53024 6.77886L11.4753 8.07702C11.461 8.12246 11.4475 8.16815 11.4349 8.21407L11.1241 9.32262L10.4118 9.79825L8.40625 8.45978C7.51436 9.33247 6.29158 9.87257 4.94373 9.87248ZM1.81579 17.0578C1.81584 16.2292 2.14539 15.4346 2.73195 14.8488C3.3185 14.2629 4.11401 13.9338 4.94347 13.9339C5.77294 13.9339 6.5684 14.2631 7.15488 14.849C7.74137 15.435 8.07082 16.2296 8.07076 17.0582C8.07071 17.8868 7.74116 18.6814 7.1546 19.2672C6.56805 19.8531 5.77254 20.1822 4.94308 20.1821C4.11362 20.1821 3.31815 19.8529 2.73167 19.267C2.14519 18.681 1.81574 17.8864 1.81579 17.0578ZM4.94359 12.1198C3.8861 12.1199 2.8565 12.4587 2.00601 13.0865C1.15552 13.7142 0.528973 14.5979 0.218393 15.6077C-0.0921863 16.6175 -0.0704276 17.7001 0.280474 18.6966C0.631375 19.6931 1.29292 20.551 2.16795 21.1441C3.04298 21.7373 4.08536 22.0345 5.142 21.9922C6.19864 21.9498 7.21384 21.5701 8.03848 20.9089C8.86313 20.2476 9.45375 19.3395 9.72361 18.3182C9.99347 17.2968 9.92833 16.2159 9.53777 15.2342L30.1659 1.49641L28.2471 1.65445C25.5411 1.93871 22.9206 2.76675 20.5432 4.08877L14.3385 7.53501C14.1054 7.66502 13.9006 7.83991 13.7357 8.04957C13.5708 8.25922 13.4492 8.49946 13.3779 8.75639L12.8673 10.5825L8.42207 13.5511C7.49772 12.6332 6.24695 12.1186 4.94359 12.1198ZM14.3138 14.4686L14.338 14.4827L20.5423 17.9297C22.9195 19.252 25.5399 20.0804 28.2459 20.365L27.9688 19.003L25.3467 17.3579L17.6755 12.2214L14.3138 14.4686Z" fill="#8162FF"/>
</svg>
